<svg aria-hidden="true" style="position: absolute; width: 0; height: 0; overflow: hidden;" version="1.1" xmlns="http://www.w3.org/2000/svg" xmlns:xlink="http://www.w3.org/1999/xlink">
<defs>
<symbol id="icon-assignment" viewBox="0 0 32 32">
<path d="M25.341 4.001h-5.575c-0.56-1.547-2.027-2.667-3.761-2.667s-3.201 1.12-3.761 2.667h-5.575c-1.467 0-2.667 1.2-2.667 2.667v18.672c0 1.467 1.2 2.667 2.667 2.667h18.672c1.467 0 2.667-1.2 2.667-2.667v-18.672c0-1.467-1.2-2.667-2.667-2.667zM16.005 4.001c0.734 0 1.334 0.6 1.334 1.334s-0.6 1.334-1.334 1.334-1.334-0.6-1.334-1.334 0.6-1.334 1.334-1.334zM13.337 22.673l-5.335-5.335 1.881-1.881 3.454 3.441 8.789-8.789 1.881 1.894-10.67 10.67z"></path>
</symbol>
<symbol id="icon-check" viewBox="0 0 32 32">
<path fill="none" stroke="#1f6bff" style="stroke: var(--color2, #1f6bff)" stroke-linejoin="round" stroke-linecap="round" stroke-miterlimit="4" stroke-width="5.9072" d="M5.261 15.757l7.876 7.876 13.129-15.754"></path>
</symbol>
<symbol id="icon-cleaningTools" viewBox="0 0 32 32">
<path d="M3.501 12.879c0.001-0.759 0.616-1.375 1.376-1.376h5.252c0.759 0.001 1.375 0.616 1.375 1.376v2.625h1v-2.626c-0.002-1.311-1.065-2.374-2.376-2.375h-0.125v-2.876c-0.001-0.621-0.505-1.124-1.126-1.125h-2.75c-0.622 0-1.126 0.504-1.126 1.126v2.876h-0.125c-1.311 0.002-2.374 1.065-2.375 2.376v3.126h1v-3.126zM6.002 7.628c0-0.069 0.056-0.125 0.125-0.125v0h2.75c0.069 0 0.125 0.056 0.125 0.125v0 2.875h-3.001v-2.876z"></path>
<path d="M10.503 16.005v-1.876c-0.001-0.621-0.505-1.124-1.126-1.125h-3.75c-0.621 0.001-1.125 0.504-1.126 1.126v1.875h1v-1.876c0-0.069 0.056-0.124 0.125-0.125h3.75c0.069 0 0.125 0.056 0.125 0.125v0 1.875h1zM4.501 26.008c-0.829 0-1.5 0.672-1.5 1.5s0.672 1.5 1.5 1.5v0c0.829 0 1.5-0.672 1.5-1.5s-0.672-1.5-1.5-1.5v0zM4.501 28.008c-0.276 0-0.5-0.224-0.5-0.5s0.224-0.5 0.5-0.5v0c0.276 0 0.5 0.224 0.5 0.5s-0.224 0.5-0.5 0.5v0zM12.046 10.205c0.058 0.128 0.165 0.226 0.296 0.271l0.004 0.001 1.5 0.5c0.047 0.016 0.102 0.026 0.158 0.026 0.15 0 0.284-0.066 0.376-0.17l0-0.001 2.625-3v1.012l-3.41 4.872c-0.057 0.080-0.091 0.179-0.091 0.287v1.5h1v-1.343l3.261-4.659h2.369l1.372 4.575v1.927h1v-2.001c-0-0.051-0.008-0.101-0.022-0.147l0.001 0.004-1.479-4.931v-1.951l-0.001-0.005v-0.005l-0.001-0.012v-0.001c-0.008-0.078-0.032-0.148-0.069-0.21l0.001 0.002-1.997-3.494c-0.088-0.152-0.249-0.252-0.434-0.252h-6.002c-0.276 0-0.5 0.224-0.5 0.5v0 1.5c0 0 0 0 0 0 0 0.22 0.142 0.406 0.339 0.473l0.004 0.001 0.732 0.244-0.038 0.096c-0.022 0.055-0.036 0.119-0.036 0.185 0 0.233 0.159 0.429 0.375 0.485l0.003 0.001 0.123 0.031-1.458 3.282c-0.027 0.060-0.043 0.13-0.043 0.203s0.016 0.143 0.044 0.205l-0.001-0.003zM18.005 8.502v-1h2.001v1h-2.001zM14.843 4.001h3.372l1.429 2.501h-2.078l-3.385-0.847 0.662-1.654zM13.004 4.641v-0.64h0.762l-0.315 0.788-0.446-0.149zM14.491 6.764l1.74 0.435-2.384 2.725-0.662-0.221 1.306-2.939z"></path>
<path d="M30.925 25.73l-2.815-4.223c-0.204-0.304-0.546-0.501-0.935-0.501-0.001 0-0.001 0-0.002 0h-0.665v-15.505h-1v15.505h-1v-18.881c0-0.069 0.056-0.125 0.125-0.125 0 0 0 0 0 0h0.75c0.069 0 0.125 0.056 0.125 0.125v0 2.375h1v-2.376c-0.001-0.621-0.505-1.124-1.126-1.125h-0.75c-0.621 0.001-1.125 0.504-1.126 1.126v14.879h-5.502c0-0.276-0.224-0.5-0.5-0.5v0h-8.502c-0.276 0-0.5 0.224-0.5 0.5v0h-7.002c-0.276 0-0.5 0.224-0.5 0.5v0 0.75c0.001 0.966 0.784 1.749 1.75 1.75h0.25v2.001h1v-2.001h4.501v6.002c0 0.276 0.224 0.5 0.5 0.5v0h6.002v-1h-5.502v-1.5h7.502v1.5h-1v1h1.5c0.276 0 0.5-0.224 0.5-0.5v0-6.002h5.502v1h-0.666c-0 0-0.001 0-0.001 0-0.389 0-0.731 0.197-0.933 0.497l-0.003 0.004-2.815 4.223c-0.053 0.078-0.084 0.174-0.084 0.277v0 4.001h-12.057c0.649-0.636 1.051-1.521 1.051-2.501 0-1.934-1.567-3.501-3.501-3.501-0.176 0-0.348 0.013-0.517 0.038l0.019-0.002v-1.036h-1v1.338c-1.192 0.575-2.001 1.775-2.001 3.163 0 1.934 1.567 3.501 3.501 3.501 0.088 0 0.175-0.003 0.262-0.010l-0.012 0.001v0.009h25.757c0.276 0 0.5-0.224 0.5-0.5v0-4.501c0-0.103-0.031-0.199-0.085-0.279l0.001 0.002zM17.005 17.505v3.501h-7.502v-3.501h7.502zM2.751 19.006c-0.414-0-0.75-0.336-0.75-0.75v-0.25h6.502v1h-5.752zM9.503 23.007v-1h7.502v1h-7.502zM18.005 19.006v-1h5.502v1h-5.502zM2.001 27.508c0-1.381 1.12-2.501 2.501-2.501s2.501 1.12 2.501 2.501v0c0 1.381-1.12 2.501-2.501 2.501s-2.501-1.12-2.501-2.501v0zM22.737 22.062c0.023-0.034 0.061-0.056 0.104-0.056h4.332c0.043 0 0.081 0.022 0.104 0.056l0 0 2.631 3.945h-9.803l2.631-3.945zM28.008 30.009v-2.001h-1v2.001h-1.5v-2.001h-1v2.001h-1.5v-2.001h-1v2.001h-2.001v-3.001h10.003v3.001h-2.001z"></path>
<path d="M23.007 23.507h1v1h-1v-1zM26.008 23.507h1v1h-1v-1zM28.508 8.002h1v1h-1v-1zM28.508 10.003h1v1h-1v-1zM27.508 9.003h1v1h-1v-1zM29.509 9.003h1v1h-1v-1zM3.501 2.501h1v1h-1v-1zM3.501 4.501h1v1h-1v-1zM2.501 3.501h1v1h-1v-1zM4.501 3.501h1v1h-1v-1z"></path>
</symbol>
<symbol id="icon-date" viewBox="0 0 32 32">
<path d="M12.003 14.671h-2.667v2.667h2.667v-2.667zM17.338 14.671h-2.667v2.667h2.667v-2.667zM22.673 14.671h-2.667v2.667h2.667v-2.667zM25.341 5.335h-1.334v-2.667h-2.667v2.667h-10.67v-2.667h-2.667v2.667h-1.334c-1.48 0-2.654 1.2-2.654 2.667l-0.013 18.672c0 1.467 1.187 2.667 2.667 2.667h18.672c1.467 0 2.667-1.2 2.667-2.667v-18.672c0-1.467-1.2-2.667-2.667-2.667zM25.341 26.674h-18.672v-14.671h18.672v14.671z"></path>
</symbol>
<symbol id="icon-Logo" viewBox="0 0 84 32">
<path d="M32.43 19.894c1.252 0 2.288-0.473 2.966-1.344l-1.067-1.032c-0.483 0.591-1.088 0.893-1.806 0.893-1.344 0-2.298-0.989-2.298-2.409s0.954-2.408 2.298-2.408c0.718 0 1.323 0.301 1.806 0.881l1.067-1.033c-0.677-0.86-1.713-1.333-2.955-1.333-2.237 0-3.899 1.623-3.899 3.892s1.662 3.892 3.889 3.892zM36.518 19.764h5.264v-1.418h-3.601v-6.106h-1.662v7.525zM44.362 18.367v-1.743h3.335v-1.354h-3.335v-1.635h3.776v-1.396h-5.428v7.526h5.561v-1.398h-3.909zM54.961 19.764h1.745l-3.212-7.525h-1.642l-3.201 7.525h1.704l0.636-1.612h3.334l0.637 1.613zM51.524 16.829l1.138-2.881 1.139 2.881h-2.277zM62.395 12.239v4.568l-3.57-4.569h-1.375v7.526h1.642v-4.569l3.581 4.569h1.365v-7.526h-1.642zM65.736 19.764h1.662v-7.525h-1.662v7.525zM74.049 12.239v4.568l-3.571-4.569h-1.375v7.526h1.642v-4.569l3.581 4.569h1.365v-7.526h-1.642zM82.243 18.088c-0.357 0.203-0.785 0.323-1.24 0.323-0.019 0-0.037-0-0.056-0.001l0.003 0c-1.375 0-2.329-1.001-2.329-2.409 0-1.43 0.955-2.408 2.35-2.408 0.728 0 1.334 0.268 1.857 0.849l1.067-1.033c-0.698-0.849-1.745-1.301-3.006-1.301-2.288 0-3.95 1.623-3.95 3.892s1.662 3.892 3.92 3.892c1.026 0 2.113-0.333 2.903-0.957v-3.053h-1.519v2.204z"></path>
<path d="M13.838 18.164h-13.838v-3.46h13.838z"></path>
<path d="M0 14.52c0-0.376 0.289-0.681 0.645-0.681h12.548c0.356 0 0.645 0.304 0.645 0.681s-0.289 0.681-0.645 0.681h-11.903v1.602h11.903c0.356 0 0.645 0.304 0.645 0.681s-0.289 0.681-0.645 0.681h-12.548c-0.356 0-0.645-0.304-0.645-0.681v-2.963z"></path>
<path d="M23.352 31.137v-30.271h-4.324v30.271h4.324z"></path>
<path d="M22.691 0.001c0.365 0 0.661 0.306 0.661 0.683v30.635c0 0.377-0.296 0.683-0.661 0.683h-3.868c-0.366-0.007-0.661-0.305-0.661-0.673 0-0.004 0-0.007 0-0.011v0.001-30.635c0-0.377 0.296-0.683 0.661-0.683h3.868zM22.031 1.367h-2.546v29.268h2.546v-29.268z"></path>
<path d="M18.456 0.001c0.316 0 0.572 0.306 0.572 0.683v30.635c0 0.377-0.256 0.683-0.572 0.683h-2.623c-0.758 0-1.486-0.36-2.022-1.001s-0.837-1.509-0.837-2.416v-25.168c0-0.906 0.301-1.775 0.837-2.416s1.264-1.001 2.022-1.001h2.623zM17.884 1.367h-2.052c-0.455 0-0.891 0.216-1.213 0.6s-0.502 0.906-0.502 1.45v25.168c0 0.544 0.18 1.066 0.502 1.45s0.758 0.6 1.213 0.6h2.052v-29.268zM25.947 0.866c0-0.477 0.31-0.865 0.692-0.865h21.968c0.382 0 0.692 0.387 0.692 0.865s-0.31 0.865-0.692 0.865h-21.968c-0.382 0-0.692-0.387-0.692-0.865zM52.759 0.866c0-0.477 0.253-0.865 0.564-0.865h0.602c0.311 0 0.564 0.387 0.564 0.865s-0.253 0.865-0.564 0.865h-0.602c-0.311 0-0.564-0.387-0.564-0.865zM62.273 0.866c0-0.477 0.378-0.865 0.844-0.865h0.906c0.466 0 0.844 0.387 0.844 0.865s-0.378 0.865-0.844 0.865h-0.906c-0.467-0.006-0.844-0.386-0.844-0.854 0-0.004 0-0.007 0-0.011v0.001z"></path>
</symbol>
<symbol id="icon-minus" viewBox="0 0 32 32">
<circle cx="15" cy="15" r="14.5" stroke="#050931"/><path stroke="#050931" stroke-width="2" d="M10 15h10"/></symbol>
<symbol id="icon-moveout" viewBox="0 0 32 32">
<path d="M16.005 8.002c-1.467 0-2.667-1.2-2.667-2.667s1.2-2.667 2.667-2.667 2.667 1.2 2.667 2.667-1.2 2.667-2.667 2.667zM22.673 2.667h2.667v0.534c-0.133 2.934-1.067 5.202-3.068 6.802-0.667 0.534-1.467 0.934-2.267 1.2v18.139h-2.667v-8.002h-2.667v8.002h-2.667v-15.871c-0.4 0.133-0.667 0.267-0.8 0.4-1.2 0.934-1.854 2.134-1.867 4.135v0.667h-2.667v-0.667c0-2.667 0.947-4.788 2.814-6.389 1.467-1.2 3.854-2.281 6.522-2.281s3.574-0.614 4.641-1.414c1.334-1.067 2.027-2.587 2.027-4.588v-0.667zM5.335 21.34h4.001v8.002h-4.001v-8.002z"></path>
</symbol>
<symbol id="icon-plus" viewBox="0 0 32 32">
<circle cx="15" cy="15" r="14.5" stroke="#050931"/><path stroke="#050931" stroke-width="2" d="M10 15h10M15 20V10"/></symbol>
<symbol id="icon-Shape" viewBox="0 0 31 32">
<path d="M1.442 2.883c0.796 0 1.442-0.645 1.442-1.442s-0.645-1.442-1.442-1.442-1.442 0.645-1.442 1.442 0.645 1.442 1.442 1.442zM7.651 1.413c0 0.004 0 0.009 0 0.014 0 0.753-0.611 1.364-1.364 1.364s-1.364-0.611-1.364-1.364c0-0.005 0-0.010 0-0.015v0.001c0.008-0.747 0.615-1.35 1.364-1.35s1.356 0.603 1.364 1.349v0.001zM12.055 1.413c0 0.706-0.572 1.278-1.278 1.278-0 0-0 0-0 0v0c-0.706 0-1.278-0.572-1.278-1.278v0c0-0 0-0 0-0 0-0.706 0.572-1.278 1.278-1.278v0c0 0 0 0 0 0 0.706 0 1.278 0.572 1.278 1.278 0 0 0 0 0 0v0zM16.288 1.387c0 0.004 0 0.008 0 0.013 0 0.648-0.526 1.174-1.174 1.174s-1.174-0.526-1.174-1.174c0-0.005 0-0.009 0-0.014v0.001c0.007-0.643 0.53-1.161 1.174-1.161s1.167 0.518 1.174 1.16v0.001zM20.304 1.442c0 0.613-0.497 1.109-1.109 1.109-0 0-0 0-0 0v0c-0 0-0 0-0 0-0.613 0-1.109-0.497-1.109-1.109v0c0-0 0-0 0-0 0-0.613 0.497-1.109 1.109-1.109 0 0 0 0 0 0v0c0 0 0 0 0 0 0.613 0 1.109 0.497 1.109 1.109v0zM23.988 1.442c-0 0.574-0.466 1.040-1.040 1.040h-0c-0.574-0-1.040-0.466-1.040-1.040v-0c0-0.574 0.466-1.040 1.040-1.040h0c0 0 0 0 0 0 0.574 0 1.040 0.466 1.040 1.040 0 0 0 0 0 0v0zM27.443 1.442c0 0.536-0.435 0.971-0.971 0.971-0 0-0 0-0.001 0h0c-0.537-0-0.971-0.435-0.971-0.972s0.435-0.972 0.972-0.972 0.972 0.435 0.972 0.972c0 0 0 0 0 0v-0zM30.554 1.442c0 0.491-0.398 0.89-0.89 0.89s-0.89-0.398-0.89-0.89v0c0-0.491 0.398-0.89 0.89-0.89s0.89 0.398 0.89 0.89v0zM1.442 7.027c0.796 0 1.442-0.645 1.442-1.442s-0.645-1.442-1.442-1.442-1.442 0.645-1.442 1.442 0.645 1.442 1.442 1.442zM7.651 5.558c0 0 0 0 0 0 0 0.753-0.611 1.364-1.364 1.364s-1.364-0.611-1.364-1.364c0-0.753 0.611-1.364 1.364-1.364 0 0 0 0 0 0v0c0.753-0.001 1.364 0.611 1.364 1.364zM12.055 5.559c0 0.706-0.572 1.278-1.278 1.278-0 0-0 0-0 0v0c-0.706 0-1.278-0.572-1.278-1.278 0-0 0-0 0-0v0c0-0 0-0 0-0 0-0.706 0.572-1.278 1.278-1.278v0c0 0 0 0 0 0 0.706 0 1.278 0.572 1.278 1.278 0 0 0 0 0 0v0zM16.288 5.53c0 0.648-0.526 1.174-1.174 1.174s-1.174-0.526-1.174-1.174v0c0-0.648 0.526-1.174 1.174-1.174s1.174 0.526 1.174 1.174v0zM20.304 5.586c0 0.613-0.497 1.109-1.109 1.109-0 0-0 0-0 0v0c-0 0-0 0-0 0-0.613 0-1.109-0.497-1.109-1.109v0c0-0 0-0 0-0 0-0.613 0.497-1.109 1.109-1.109 0 0 0 0 0 0v0c0.613 0 1.109 0.497 1.109 1.109v0zM23.988 5.587c-0 0.574-0.466 1.040-1.040 1.040h-0c-0.574-0-1.040-0.466-1.040-1.040v-0c0-0.574 0.466-1.040 1.040-1.040h0c0.574 0 1.040 0.466 1.040 1.040v0zM27.443 5.586c0 0.536-0.435 0.971-0.971 0.971-0 0-0 0-0.001 0h0c-0.537 0-0.972-0.435-0.972-0.972s0.435-0.972 0.972-0.972v0c0.537 0 0.972 0.435 0.972 0.972v0zM30.554 5.587c0 0.491-0.398 0.89-0.89 0.89s-0.89-0.398-0.89-0.89v0c0-0.491 0.398-0.89 0.89-0.89s0.89 0.398 0.89 0.89v0zM1.442 11.172c0.796 0 1.442-0.645 1.442-1.442s-0.645-1.442-1.442-1.442-1.442 0.645-1.442 1.442c0 0.796 0.645 1.442 1.442 1.442zM7.651 9.702c0 0.004 0 0.009 0 0.014 0 0.753-0.611 1.364-1.364 1.364s-1.364-0.611-1.364-1.364c0-0.005 0-0.010 0-0.015v0.001c0.008-0.747 0.615-1.35 1.364-1.35s1.356 0.603 1.364 1.349v0.001zM12.055 9.703c0 0.706-0.572 1.278-1.278 1.278-0 0-0 0-0 0v0c-0.706 0-1.278-0.572-1.278-1.278v0c0-0 0-0 0-0 0-0.706 0.572-1.278 1.278-1.278v0c0 0 0 0 0 0 0.706 0 1.278 0.572 1.278 1.278 0 0 0 0 0 0v0zM16.288 9.676c0 0.648-0.526 1.174-1.174 1.174s-1.174-0.526-1.174-1.174v0c0-0.648 0.526-1.174 1.174-1.174s1.174 0.526 1.174 1.174v0zM20.304 9.73c0 0 0 0 0 0 0 0.613-0.497 1.109-1.109 1.109-0 0-0 0-0 0v0c-0 0-0 0-0 0-0.613 0-1.109-0.497-1.109-1.109 0-0 0-0 0-0v0c0-0.613 0.497-1.109 1.109-1.109 0 0 0 0 0 0v0c0 0 0 0 0 0 0.613 0 1.109 0.497 1.109 1.109v0zM23.988 9.731c-0 0.574-0.466 1.040-1.040 1.040h-0c-0.574-0-1.040-0.466-1.040-1.040v-0c0-0.574 0.466-1.040 1.040-1.040h0c0.574 0 1.040 0.466 1.040 1.040v0zM27.443 9.731c0 0 0 0 0 0 0 0.536-0.435 0.971-0.971 0.971-0 0-0 0-0.001 0h0c-0.537-0-0.971-0.435-0.971-0.972s0.435-0.972 0.972-0.972 0.972 0.435 0.972 0.972c0 0 0 0 0 0v-0zM30.554 9.731c0 0.491-0.398 0.89-0.89 0.89s-0.89-0.398-0.89-0.89v0c0-0.491 0.398-0.89 0.89-0.89s0.89 0.398 0.89 0.89v0zM1.442 15.318c0.796 0 1.442-0.645 1.442-1.442s-0.645-1.442-1.442-1.442-1.442 0.646-1.442 1.442c0 0.796 0.645 1.442 1.442 1.442zM7.651 13.848c0 0.004 0 0.009 0 0.014 0 0.753-0.611 1.364-1.364 1.364s-1.364-0.611-1.364-1.364c0-0.005 0-0.010 0-0.015v0.001c0.008-0.747 0.615-1.35 1.364-1.35s1.356 0.603 1.364 1.349v0.001zM12.055 13.848c0 0 0 0 0 0 0 0.706-0.572 1.278-1.278 1.278-0 0-0 0-0 0v0c-0.706 0-1.278-0.572-1.278-1.278 0-0 0-0 0-0v0c0-0.706 0.572-1.278 1.278-1.278v0c0 0 0 0 0 0 0.706 0 1.278 0.572 1.278 1.278v0zM16.288 13.821c0 0.648-0.526 1.174-1.174 1.174-0 0-0 0-0 0v0c-0 0-0 0-0 0-0.648 0-1.174-0.526-1.174-1.174v0c0-0.648 0.526-1.174 1.174-1.174s1.174 0.526 1.174 1.174v0zM20.304 13.876c0 0 0 0 0 0 0 0.613-0.497 1.109-1.109 1.109-0 0-0 0-0 0v0c-0 0-0 0-0 0-0.613 0-1.109-0.497-1.109-1.109 0-0 0-0 0-0v0c0-0 0-0 0-0 0-0.613 0.497-1.109 1.109-1.109 0 0 0 0 0 0v0c0 0 0 0 0 0 0.613 0 1.109 0.497 1.109 1.109v0zM23.988 13.876c-0 0.574-0.466 1.040-1.040 1.040h-0c-0.574-0-1.040-0.466-1.040-1.040v-0c0-0.574 0.466-1.040 1.040-1.040h0c0 0 0 0 0 0 0.574 0 1.040 0.466 1.040 1.040 0 0 0 0 0 0v0zM27.443 13.875c0 0.536-0.435 0.971-0.971 0.971-0 0-0 0-0.001 0h0c-0.537-0-0.971-0.435-0.971-0.972s0.435-0.972 0.972-0.972 0.972 0.435 0.972 0.972c0 0 0 0 0 0v-0zM30.554 13.876c0 0.003 0 0.007 0 0.011 0 0.492-0.398 0.89-0.89 0.89s-0.89-0.398-0.89-0.89c0-0.004 0-0.008 0-0.012v0.001c0.006-0.487 0.402-0.879 0.89-0.879s0.884 0.392 0.89 0.878v0.001zM1.442 19.462c0.796 0 1.442-0.645 1.442-1.442s-0.645-1.442-1.442-1.442-1.442 0.645-1.442 1.442 0.645 1.442 1.442 1.442zM7.651 17.991c0 0.004 0 0.009 0 0.014 0 0.753-0.611 1.364-1.364 1.364s-1.364-0.611-1.364-1.364c0-0.005 0-0.010 0-0.015v0.001c0.008-0.747 0.616-1.35 1.364-1.35s1.356 0.603 1.364 1.349v0.001zM12.055 17.992c0 0 0 0 0 0 0 0.706-0.572 1.278-1.278 1.278-0 0-0 0-0 0h0c-0 0-0 0-0 0-0.706 0-1.278-0.572-1.278-1.278 0-0 0-0 0-0v0c0-0.706 0.572-1.278 1.278-1.278s1.278 0.572 1.278 1.278v0zM16.288 17.965c0 0.648-0.526 1.174-1.174 1.174s-1.174-0.526-1.174-1.174v0c0-0.648 0.526-1.174 1.174-1.174s1.174 0.526 1.174 1.174v0zM20.304 18.021c0 0 0 0 0 0 0 0.613-0.497 1.109-1.109 1.109-0 0-0 0-0 0v0c-0 0-0 0-0 0-0.613 0-1.109-0.497-1.109-1.109 0-0 0-0 0-0v0c0-0 0-0 0-0 0-0.613 0.497-1.109 1.109-1.109 0 0 0 0 0 0v0c0 0 0 0 0 0 0.613 0 1.109 0.497 1.109 1.109 0 0 0 0 0 0v0zM23.988 18.020c-0 0.574-0.466 1.040-1.040 1.040h-0c-0.574-0-1.040-0.466-1.040-1.040v-0c0-0.574 0.466-1.040 1.040-1.040h0c0.574 0 1.040 0.466 1.040 1.040v0zM27.443 18.020c0 0.536-0.435 0.971-0.971 0.971-0 0-0 0-0.001 0h0c-0 0-0 0-0 0-0.536 0-0.971-0.435-0.971-0.971 0-0 0-0 0-0v0c0-0 0-0 0-0 0-0.536 0.435-0.971 0.971-0.971 0 0 0 0 0 0v0c0 0 0 0 0.001 0 0.536 0 0.971 0.435 0.971 0.971v0zM30.554 18.020c-0 0.491-0.398 0.89-0.89 0.89s-0.89-0.398-0.89-0.89c0-0 0-0 0-0v0c0-0.491 0.398-0.89 0.89-0.89s0.89 0.398 0.89 0.89c0 0 0 0 0 0v0zM2.883 22.165c0 0.796-0.646 1.442-1.442 1.442s-1.442-0.646-1.442-1.442c0-0.796 0.646-1.442 1.442-1.442s1.442 0.645 1.442 1.442zM7.651 22.137c0 0.004 0 0.009 0 0.014 0 0.753-0.611 1.364-1.364 1.364s-1.364-0.611-1.364-1.364c0-0.005 0-0.010 0-0.015v0.001c0.008-0.747 0.616-1.35 1.364-1.35s1.356 0.603 1.364 1.349v0.001zM12.055 22.137c0 0 0 0 0 0 0 0.706-0.572 1.278-1.278 1.278-0 0-0 0-0 0v0c-0.706 0-1.278-0.572-1.278-1.278 0-0 0-0 0-0v0c0-0 0-0 0-0 0-0.706 0.572-1.278 1.278-1.278v0c0 0 0 0 0 0 0.706 0 1.278 0.572 1.278 1.278 0 0 0 0 0 0v0zM16.288 22.111c0 0.648-0.526 1.174-1.174 1.174s-1.174-0.526-1.174-1.174v0c0-0.648 0.526-1.174 1.174-1.174s1.174 0.526 1.174 1.174v0zM20.304 22.165c0 0 0 0 0 0 0 0.613-0.497 1.109-1.109 1.109-0 0-0 0-0 0v0c-0 0-0 0-0 0-0.613 0-1.109-0.497-1.109-1.109 0-0 0-0 0-0v0c0-0 0-0 0-0 0-0.613 0.497-1.109 1.109-1.109 0 0 0 0 0 0v0c0 0 0 0 0 0 0.613 0 1.109 0.497 1.109 1.109 0 0 0 0 0 0v0zM23.988 22.166c-0 0.574-0.466 1.040-1.040 1.040h-0c-0.574-0-1.040-0.466-1.040-1.040v-0c0-0.574 0.466-1.040 1.040-1.040h0c0.574 0 1.040 0.466 1.040 1.040v0zM27.443 22.165c0 0.536-0.435 0.971-0.971 0.971-0 0-0 0-0.001 0h0c-0 0-0 0-0 0-0.536 0-0.971-0.435-0.971-0.971 0-0 0-0 0-0v0c0-0 0-0 0-0 0-0.536 0.435-0.971 0.971-0.971 0 0 0 0 0 0v0c0 0 0.001 0 0.001 0 0.536 0 0.971 0.435 0.971 0.971 0 0 0 0 0 0v-0zM30.554 22.166c0 0.491-0.398 0.89-0.89 0.89s-0.89-0.398-0.89-0.89v0c0-0.491 0.398-0.89 0.89-0.89s0.89 0.398 0.89 0.89v0zM2.883 26.31c0 0.796-0.646 1.442-1.442 1.442s-1.442-0.646-1.442-1.442 0.646-1.442 1.442-1.442 1.442 0.646 1.442 1.442zM7.651 26.282c0 0.004 0 0.009 0 0.014 0 0.753-0.611 1.364-1.364 1.364s-1.364-0.611-1.364-1.364c0-0.005 0-0.010 0-0.015v0.001c0.008-0.747 0.616-1.35 1.364-1.35s1.356 0.603 1.364 1.349v0.001zM12.055 26.282c0 0 0 0 0 0 0 0.706-0.572 1.278-1.278 1.278-0 0-0 0-0 0v0c-0.706 0-1.278-0.572-1.278-1.278 0-0 0-0 0-0v0c0-0.706 0.572-1.278 1.278-1.278v0c0 0 0 0 0 0 0.706 0 1.278 0.572 1.278 1.278v0zM16.288 26.254c0 0.648-0.526 1.174-1.174 1.174-0 0-0 0-0 0v0c-0 0-0 0-0 0-0.648 0-1.174-0.526-1.174-1.174v0c0-0 0-0 0-0 0-0.648 0.526-1.174 1.174-1.174 0 0 0 0 0 0v0c0.648 0.001 1.174 0.526 1.174 1.174zM20.304 26.31c0 0 0 0 0 0 0 0.613-0.497 1.109-1.109 1.109-0 0-0 0-0 0v0c-0 0-0 0-0 0-0.613 0-1.109-0.497-1.109-1.109 0-0 0-0 0-0v0c0-0 0-0 0-0 0-0.613 0.497-1.109 1.109-1.109 0 0 0 0 0 0v0c0 0 0 0 0 0 0.613 0 1.109 0.497 1.109 1.109 0 0 0 0 0 0v0zM23.988 26.31c-0 0.574-0.466 1.040-1.040 1.040h-0c-0.574-0-1.040-0.466-1.040-1.040v-0c0-0.574 0.466-1.040 1.040-1.040h0c0.574 0 1.040 0.466 1.040 1.040v0zM27.443 26.309c0 0 0 0 0 0 0 0.537-0.435 0.972-0.972 0.972v0c-0.536-0-0.971-0.435-0.971-0.971 0-0 0-0 0-0.001v0c0-0 0-0 0-0 0-0.536 0.435-0.971 0.971-0.971 0 0 0 0 0 0v0c0 0 0 0 0.001 0 0.536 0 0.971 0.435 0.971 0.971v0zM30.554 26.31c-0 0.491-0.398 0.89-0.89 0.89s-0.89-0.398-0.89-0.89c0-0 0-0 0-0v0c0-0.491 0.398-0.89 0.89-0.89s0.89 0.398 0.89 0.89c0 0 0 0 0 0v0zM2.883 30.455c0 0.796-0.646 1.442-1.442 1.442s-1.442-0.646-1.442-1.442c0-0.796 0.646-1.442 1.442-1.442s1.442 0.646 1.442 1.442zM7.651 30.426c0 0.004 0 0.009 0 0.014 0 0.753-0.611 1.364-1.364 1.364s-1.364-0.611-1.364-1.364c0-0.005 0-0.010 0-0.015v0.001c0.008-0.747 0.616-1.35 1.364-1.35s1.356 0.603 1.364 1.349v0.001zM12.055 30.427c0 0 0 0 0 0 0 0.706-0.572 1.278-1.278 1.278-0 0-0 0-0 0v0c-0.706 0-1.278-0.572-1.278-1.278 0-0 0-0 0-0v0c0-0.706 0.572-1.278 1.278-1.278s1.278 0.572 1.278 1.278v0zM16.288 30.4c0 0.648-0.526 1.174-1.174 1.174s-1.174-0.526-1.174-1.174v0c0-0.648 0.526-1.174 1.174-1.174s1.174 0.526 1.174 1.174v0zM20.304 30.454c0 0 0 0 0 0 0 0.613-0.497 1.109-1.109 1.109-0 0-0 0-0 0v0c-0 0-0 0-0 0-0.613 0-1.109-0.497-1.109-1.109 0-0 0-0 0-0v0c0-0 0-0 0-0 0-0.613 0.497-1.109 1.109-1.109 0 0 0 0 0 0v0c0 0 0 0 0 0 0.613 0 1.109 0.497 1.109 1.109 0 0 0 0 0 0v0zM23.988 30.455c-0 0.574-0.466 1.040-1.040 1.040h-0c-0.574-0-1.040-0.466-1.040-1.040v-0c0-0.574 0.466-1.040 1.040-1.040h0c0.574 0 1.040 0.466 1.040 1.040v0zM27.443 30.455c0 0 0 0 0 0 0 0.537-0.435 0.972-0.972 0.972-0 0-0 0-0 0v0c-0.536 0-0.971-0.435-0.971-0.971 0-0 0-0 0-0.001v0c0-0 0-0 0-0 0-0.536 0.435-0.971 0.971-0.971 0 0 0 0 0 0v0c0 0 0 0 0.001 0 0.536 0 0.971 0.435 0.971 0.971v0zM30.554 30.455c-0 0.491-0.398 0.89-0.89 0.89s-0.89-0.398-0.89-0.89c0-0 0-0 0-0v0c0-0.491 0.398-0.89 0.89-0.89s0.89 0.398 0.89 0.89c0 0 0 0 0 0v0z"></path>
</symbol>
<symbol id="icon-telephone" viewBox="0 0 32 32">
<path d="M24.335 21.174c-1.046-1.032-2.35-1.032-3.388 0-0.795 0.787-1.587 1.574-2.366 2.374-0.213 0.219-0.395 0.267-0.654 0.117-0.512-0.277-1.059-0.507-1.552-0.811-2.297-1.446-4.223-3.305-5.927-5.396-0.846-1.040-1.6-2.15-2.126-3.404-0.107-0.253-0.085-0.419 0.12-0.627 0.792-0.766 1.566-1.55 2.345-2.337 1.086-1.094 1.086-2.374-0.008-3.47-0.619-0.627-1.238-1.24-1.857-1.867-0.64-0.638-1.272-1.283-1.921-1.915-1.043-1.019-2.347-1.019-3.388 0.005-0.8 0.787-1.566 1.592-2.379 2.366-0.7 0.659-1.153 1.573-1.211 2.593l-0 0.010c-0.128 1.659 0.28 3.222 0.854 4.748 1.171 3.158 2.956 5.962 5.121 8.536 2.853 3.404 6.348 6.168 10.311 8.128l0.185 0.083c1.841 0.894 3.742 1.579 5.815 1.691 1.424 0.080 2.665-0.28 3.654-1.392 0.683-0.758 1.448-1.451 2.166-2.177 1.067-1.080 1.072-2.385 0.013-3.452-1.264-1.272-2.537-2.537-3.809-3.804zM23.057 15.866l2.459-0.419c-0.409-2.336-1.505-4.366-3.070-5.927l-0-0c-1.637-1.648-3.794-2.777-6.205-3.119l-0.058-0.007-0.347 2.473c1.846 0.259 3.524 1.094 4.849 2.417 1.254 1.254 2.073 2.838 2.374 4.583zM26.909 5.183c-2.716-2.734-6.296-4.606-10.296-5.172l-0.096-0.011-0.347 2.47c3.54 0.501 6.634 2.117 8.983 4.476l0 0c2.245 2.235 3.817 5.145 4.388 8.399l0.014 0.094 2.459-0.419c-0.682-3.878-2.504-7.246-5.102-9.837l-0-0z"></path>
</symbol>
<symbol id="icon-underline" viewBox="0 0 680 32">
<path d="M8 8.028h288c4.418 0 8 3.582 8 8s-3.582 8-8 8h-288c-4.418 0-8-3.582-8-8s3.582-8 8-8z"></path>
<path d="M400 8.028h272c4.418 0 8 3.582 8 8s-3.582 8-8 8h-272c-4.418 0-8-3.582-8-8s3.582-8 8-8z"></path>
<path d="M344 0.028c8.837 0 16 7.163 16 16s-7.163 16-16 16c-8.837 0-16-7.163-16-16s7.163-16 16-16z"></path>
</symbol>
<symbol id="icon-users" viewBox="0 0 33 32">
<path d="M11.693 5.998c-1.93 0.008-3.493 1.571-3.501 3.501v0.001c0 1.922 1.578 3.501 3.501 3.501s3.501-1.578 3.501-3.501c0-1.922-1.579-3.501-3.501-3.501zM20.695 5.998c-1.93 0.008-3.493 1.571-3.501 3.501v0.001c0 1.922 1.578 3.501 3.501 3.501s3.501-1.578 3.501-3.501c0-1.922-1.579-3.501-3.501-3.501zM11.693 7.999c0.004-0 0.010-0 0.015-0 0.821 0 1.486 0.665 1.486 1.486 0 0.005-0 0.010-0 0.016v-0.001c0 0.004 0 0.009 0 0.014 0 0.821-0.665 1.486-1.486 1.486-0.005 0-0.010-0-0.016-0h0.001c-0.004 0-0.009 0-0.014 0-0.821 0-1.486-0.665-1.486-1.486 0-0.005 0-0.010 0-0.016v0.001c-0-0.004-0-0.009-0-0.014 0-0.821 0.665-1.486 1.486-1.486 0.005 0 0.010 0 0.015 0h-0.001zM20.695 7.999c0.004-0 0.010-0 0.015-0 0.821 0 1.486 0.665 1.486 1.486 0 0.005-0 0.010-0 0.016v-0.001c0 0.004 0 0.009 0 0.014 0 0.821-0.665 1.486-1.486 1.486-0.005 0-0.010-0-0.016-0h0.001c-0.004 0-0.009 0-0.014 0-0.821 0-1.486-0.665-1.486-1.486 0-0.005 0-0.010 0-0.016v0.001c-0-0.004-0-0.009-0-0.014 0-0.821 0.665-1.486 1.486-1.486 0.005 0 0.010 0 0.014 0h-0.001zM7.192 12c-2.201 0-4.001 1.8-4.001 4.001 0 1.114 0.477 2.117 1.219 2.845-1.341 0.915-2.212 2.433-2.219 4.156v0.001h2.001c-0-0.004-0-0.009-0-0.014 0-1.649 1.337-2.987 2.987-2.987 0.005 0 0.010 0 0.015 0h-0.001c0.004-0 0.009-0 0.014-0 1.649 0 2.987 1.337 2.987 2.987 0 0.005 0 0.010-0 0.015v-0.001h2.001c-0.007-1.724-0.878-3.242-2.202-4.146l-0.017-0.011c0.742-0.728 1.219-1.731 1.219-2.845 0-2.201-1.8-4.001-4.001-4.001zM12.193 23.003c-0.623 0.826-0.998 1.869-1 3v0h2.001c-0-0.004-0-0.009-0-0.014 0-1.649 1.337-2.987 2.987-2.987 0.005 0 0.010 0 0.015 0h-0.001c0.004-0 0.009-0 0.014-0 1.649 0 2.987 1.337 2.987 2.987 0 0.005 0 0.010-0 0.015v-0.001h2.001c-0.002-1.131-0.377-2.175-1.009-3.014l0.009 0.013c-0.342-0.452-0.745-0.835-1.202-1.145l-0.018-0.011c0.742-0.726 1.219-1.73 1.219-2.844 0-2.201-1.8-4.001-4.001-4.001-2.2 0-4.001 1.8-4.001 4.001 0 1.114 0.478 2.117 1.22 2.844-0.474 0.321-0.877 0.705-1.21 1.144l-0.009 0.013zM20.195 23.003h2.001c-0-0.004-0-0.009-0-0.014 0-1.649 1.337-2.987 2.987-2.987 0.005 0 0.010 0 0.015 0h-0.001c0.004-0 0.009-0 0.014-0 1.649 0 2.987 1.337 2.987 2.987 0 0.005 0 0.010-0 0.015v-0.001h2.001c-0.007-1.724-0.878-3.242-2.202-4.146l-0.017-0.011c0.742-0.728 1.219-1.731 1.219-2.845 0-2.201-1.8-4.001-4.001-4.001-2.2 0-4.001 1.8-4.001 4.001 0 1.114 0.478 2.117 1.219 2.845-1.341 0.915-2.212 2.433-2.219 4.156v0.001zM7.192 14.001c0.005-0 0.010-0 0.015-0 1.096 0 1.985 0.889 1.985 1.985 0 0.005-0 0.011-0 0.016v-0.001c0 0.005 0 0.010 0 0.015 0 1.096-0.889 1.985-1.985 1.985-0.005 0-0.011-0-0.016-0h0.001c-0.005 0-0.010 0-0.015 0-1.096 0-1.985-0.889-1.985-1.985 0-0.005 0-0.011 0-0.016v0.001c-0-0.005-0-0.010-0-0.015 0-1.096 0.889-1.985 1.985-1.985 0.005 0 0.011 0 0.016 0h-0.001zM25.197 14.001c0.005-0 0.010-0 0.015-0 1.096 0 1.985 0.889 1.985 1.985 0 0.005-0 0.011-0 0.016v-0.001c0 0.005 0 0.010 0 0.015 0 1.096-0.889 1.985-1.985 1.985-0.005 0-0.011-0-0.016-0h0.001c-0.005 0-0.010 0-0.015 0-1.096 0-1.985-0.889-1.985-1.985 0-0.005 0-0.011 0-0.016v0.001c-0-0.005-0-0.010-0-0.015 0-1.096 0.889-1.985 1.985-1.985 0.005 0 0.011 0 0.016 0h-0.001zM16.194 17.001c0.005-0 0.010-0 0.015-0 1.096 0 1.985 0.889 1.985 1.985 0 0.005-0 0.011-0 0.016v-0.001c0 0.005 0 0.010 0 0.015 0 1.096-0.889 1.985-1.985 1.985-0.005 0-0.011-0-0.016-0h0.001c-0.005 0-0.010 0-0.015 0-1.096 0-1.985-0.889-1.985-1.985 0-0.005 0-0.011 0-0.016v0.001c-0-0.005-0-0.010-0-0.015 0-1.096 0.889-1.985 1.985-1.985 0.005 0 0.011 0 0.016 0h-0.001z"></path>
</symbol>
<symbol id="icon-arrow" viewBox="0 0 32 33">
<path d="m22.492 7.858-1.414 1.414 6 6H1v2h26.078l-6 6 1.414 1.414 8.414-8.414-8.414-8.414Z"/></symbol>
<symbol id="icon-carousel" viewBox="0 0 116 48">
<circle cx="24" cy="24" r="23.5" stroke="#007CFA"/><path fill="#007CFA" d="M19.442 24c0 .287.11.573.328.792l6.88 6.88a1.12 1.12 0 1 0 1.584-1.585L22.147 24l6.087-6.087a1.12 1.12 0 1 0-1.584-1.585l-6.88 6.88a1.117 1.117 0 0 0-.328.792Z"/><circle cx="24" cy="24" r="24" fill="#007CFA" transform="matrix(-1 0 0 1 116 0)"/><path fill="#fff" d="M96.558 24c0 .287-.11.573-.328.792l-6.88 6.88a1.12 1.12 0 1 1-1.584-1.585L93.853 24l-6.087-6.087a1.12 1.12 0 1 1 1.584-1.585l6.88 6.88c.219.219.328.505.328.792Z"/></symbol>
<symbol id="icon-send" viewBox="0 0 32 32">
<path fill="#fff" style="fill: var(--color1, #fff)" d="M31.741 0.274c-0.17-0.169-0.404-0.274-0.663-0.274-0.096 0-0.189 0.015-0.277 0.042l0.007-0.002-28.694 8.608c-1.232 0.372-2.114 1.497-2.114 2.827 0 0.005 0 0.010 0 0.015v-0.001c0 1.303 0.875 2.462 2.127 2.82l12.118 3.462 3.462 12.118c0.366 1.236 1.488 2.123 2.819 2.127h0c0.004 0 0.009 0 0.014 0 1.331 0 2.456-0.882 2.822-2.093l0.005-0.021 8.608-28.694c0.025-0.081 0.040-0.174 0.040-0.27 0-0.259-0.105-0.493-0.274-0.663v0zM1.875 11.489c0-0.485 0.313-0.904 0.778-1.044l25.132-7.541-13.054 13.054-12.089-3.453c-0.445-0.132-0.765-0.537-0.766-1.016v-0zM21.572 29.363c-0.137 0.453-0.55 0.778-1.040 0.778-0.001 0-0.003 0-0.004 0h0c-0.48-0.001-0.885-0.321-1.015-0.759l-0.002-0.008-3.453-12.089 13.052-13.053-7.54 25.131z"></path>
</symbol>
<symbol id="icon-facebook" viewBox="0 0 32 32">
<path d="M12.928 17.666h-3.168c-0.512 0-0.672-0.192-0.672-0.672v-3.872c0-0.512 0.192-0.672 0.672-0.672h3.168v-2.816c0-1.28 0.224-2.496 0.864-3.616 0.672-1.152 1.632-1.92 2.848-2.368 0.8-0.288 1.6-0.416 2.464-0.416h3.136c0.448 0 0.64 0.192 0.64 0.64v3.648c0 0.448-0.192 0.64-0.64 0.64-0.864 0-1.728 0-2.592 0.032-0.864 0-1.312 0.416-1.312 1.312-0.032 0.96 0 1.888 0 2.88h3.712c0.512 0 0.704 0.192 0.704 0.704v3.872c0 0.512-0.16 0.672-0.704 0.672h-3.712v10.432c0 0.544-0.16 0.736-0.736 0.736h-4c-0.48 0-0.672-0.192-0.672-0.672v-10.464z"></path>
</symbol>
<symbol id="icon-instagram" viewBox="0 0 32 32">
<path d="M23.338 0h-14.675c-4.782 0.005-8.657 3.881-8.662 8.662v14.676c0.005 4.782 3.881 8.657 8.662 8.662h14.676c4.782-0.005 8.657-3.881 8.662-8.662v-14.676c-0.005-4.782-3.881-8.657-8.662-8.662h-0.001zM30.125 23.338c-0.004 3.747-3.040 6.784-6.787 6.787h-14.676c-3.747-0.004-6.784-3.040-6.787-6.787v-14.676c0.004-3.747 3.040-6.784 6.787-6.787h14.676c3.747 0.004 6.784 3.040 6.787 6.787v14.676z"></path>
<path d="M16 7.25c-4.831 0.005-8.747 3.919-8.752 8.75v0.001c0.006 4.83 3.921 8.744 8.752 8.749h0c4.829-0.006 8.742-3.92 8.749-8.748v-0.001c-0.005-4.831-3.918-8.746-8.748-8.752h-0.001zM16 22.874c-3.794-0.005-6.869-3.079-6.874-6.873v-0c0.005-3.794 3.079-6.869 6.873-6.874h0c3.794 0.005 6.869 3.079 6.874 6.873v0c-0.004 3.795-3.079 6.87-6.873 6.874h-0zM24.954 4.141c-1.424 0-2.586 1.16-2.586 2.586 0 1.424 1.16 2.586 2.586 2.586 1.427 0 2.586-1.16 2.586-2.586s-1.158-2.586-2.586-2.586zM24.954 7.437c-0.392-0-0.71-0.319-0.71-0.711s0.318-0.711 0.711-0.711c0 0 0.001 0 0.001 0h-0c0.392 0 0.71 0.318 0.71 0.71s-0.318 0.71-0.71 0.71v0z"></path>
</symbol>
<symbol id="icon-linkedin" viewBox="0 0 32 32">
<path d="M7.534 4.859c1.477 0.009 2.67 1.207 2.672 2.685v0c-0.005 1.542-1.285 2.704-2.69 2.672-1.427 0.029-2.68-1.163-2.68-2.682 0-1.474 1.214-2.677 2.698-2.675zM9.085 27.138h-3.141c-0.407 0-0.738-0.33-0.738-0.738v0-13.397c0-0.408 0.33-0.738 0.738-0.738h3.141c0.406 0 0.736 0.33 0.736 0.738v13.397c0 0 0 0 0 0 0 0.407-0.329 0.737-0.736 0.738h-0zM27.171 16.966c0-2.808-2.277-5.085-5.085-5.085-0.001 0-0.001 0-0.002 0h-0.805c-0.001 0-0.002 0-0.003 0-1.694 0-3.17 0.933-3.942 2.313l-0.012 0.023c-0.012-0.003-0.027-0.005-0.042-0.006l-0.001-0v-1.643c0-0 0-0.001 0-0.002 0-0.169-0.137-0.306-0.306-0.306 0 0 0 0 0 0h-3.918c0 0 0 0 0 0-0.169 0-0.306 0.137-0.306 0.306 0 0.001 0 0.001 0 0.002v-0 14.259c0 0.168 0.136 0.306 0.306 0.306h4.003c0 0 0.001 0 0.002 0 0.168 0 0.305-0.136 0.306-0.304v-8.24c0-1.424 1.136-2.605 2.56-2.621 0.011-0 0.025-0 0.038-0 1.425 0 2.581 1.155 2.581 2.581 0 0.003 0 0.006 0 0.009v-0 8.272c0 0.17 0.136 0.306 0.304 0.306l4.014 0.002c0 0 0.001 0 0.002 0 0.169 0 0.306-0.137 0.306-0.306 0 0 0 0 0 0v0-9.864z"></path>
</symbol>
<symbol id="icon-twitter" viewBox="0 0 32 32">
<path d="M32 6.078c-1.1 0.493-2.376 0.857-3.713 1.028l-0.068 0.007c1.36-0.817 2.382-2.078 2.873-3.579l0.013-0.046c-1.197 0.722-2.591 1.273-4.076 1.573l-0.084 0.014c-1.2-1.279-2.9-2.076-4.787-2.076-3.622 0-6.558 2.936-6.558 6.558 0 0.001 0 0.003 0 0.004v-0c0 0.52 0.043 1.021 0.152 1.496-5.454-0.266-10.28-2.88-13.522-6.861-0.564 0.949-0.899 2.092-0.902 3.313v0.001c0 2.272 1.171 4.286 2.914 5.451-1.091-0.030-2.107-0.325-2.994-0.823l0.033 0.017v0.072c0.003 3.165 2.236 5.807 5.213 6.44l0.043 0.008c-0.499 0.136-1.071 0.215-1.662 0.215-0.020 0-0.041-0-0.061-0l0.003 0c-0.419 0-0.843-0.024-1.242-0.112 0.85 2.598 3.261 4.509 6.13 4.57-2.215 1.746-5.045 2.8-8.122 2.8-0.004 0-0.008 0-0.013 0h0.001c-0.018 0-0.040 0-0.062 0-0.531 0-1.055-0.034-1.569-0.099l0.061 0.006c2.826 1.846 6.287 2.944 10.004 2.944 0.021 0 0.042-0 0.063-0h-0.003c12.072 0 18.672-10 18.672-18.669 0-0.288-0.010-0.57-0.024-0.848 1.299-0.936 2.39-2.064 3.258-3.355l0.030-0.047z"></path>
</symbol>
</defs>
</svg>
